<svg width="320" height="84" viewBox="0 0 320 84" fill="none" xmlns="http://www.w3.org/2000/svg">
<g clip-path="url(#clip0_421_2779)">
<path d="M189.887 36H198.34V66H189.887V62.1C186.868 66.6 182.943 66.9 180.528 66.9C171.17 66.9 165.132 59.7 165.132 51C165.132 42 171.17 35.1 179.925 35.1C182.34 35.1 186.868 35.4 189.585 39.9V36H189.887ZM174.189 51C174.189 55.8 177.509 59.4 182.642 59.4C187.472 59.4 191.094 55.8 191.094 51C191.094 46.2 187.774 42.6 182.642 42.6C177.811 42.6 174.189 46.2 174.189 51ZM214.943 43.2V66H206.491V43.2H203.17V36H206.491V25.8H214.943V36H220.679V43.2H214.943ZM240.604 43.2C238.491 41.4 236.679 41.1 235.774 41.1C233.66 41.1 232.453 42 232.453 43.5C232.453 44.4 232.755 45.3 235.17 46.2L237.283 46.8C239.698 47.7 243.321 48.6 244.83 51C245.736 52.2 246.34 54 246.34 56.1C246.34 58.8 245.434 61.5 243.019 63.6C240.604 65.7 237.585 66.9 233.962 66.9C227.623 66.9 224.302 63.9 222.189 61.8L226.717 56.7C228.528 58.5 230.943 60.3 233.359 60.3C235.774 60.3 237.585 59.1 237.585 57C237.585 55.2 236.076 54.3 234.868 54L233.057 53.4C230.943 52.5 228.528 51.6 226.717 49.8C225.208 48.3 224.302 46.5 224.302 44.1C224.302 41.1 225.811 38.7 227.321 37.2C229.736 35.4 232.755 35.1 235.17 35.1C237.283 35.1 240.906 35.4 244.83 38.4L240.604 43.2ZM259.019 39.9C262.038 35.7 266.264 35.1 268.679 35.1C277.434 35.1 283.472 42 283.472 51C283.472 60 277.434 66.9 268.377 66.9C266.566 66.9 262.038 66.6 258.717 62.1V66H250.566V15.6H259.019V39.9ZM258.113 51C258.113 55.8 261.434 59.4 266.566 59.4C271.396 59.4 275.019 55.8 275.019 51C275.019 46.2 271.698 42.6 266.566 42.6C261.434 42.6 258.113 46.2 258.113 51ZM297.359 61.5L282.868 36H292.83L302.189 53.1L310.642 36H320.302L296.151 81.9H286.491L297.359 61.5ZM163.019 41.1H141.887V49.5H153.057C151.245 55.2 147.019 59.1 139.17 59.1C130.415 59.1 124.076 51.9 124.076 43.2C124.076 34.5 130.113 27 138.868 27C143.698 27 148.528 29.4 151.547 33.3L158.491 28.8C153.962 22.5 146.717 18.9 138.868 18.9C125.585 18.9 114.717 29.7 114.717 43.2C114.717 56.7 124.981 67.5 138.868 67.5C152.755 67.5 163.019 56.7 163.019 43.2C163.321 42.3 163.019 41.7 163.019 41.1Z" fill="black"/>
<path d="M75.4717 42H54.3397V48H68.8302C66.717 57 60.0755 64.5 51.3208 67.5L16.6038 33C20.2265 22.5 30.4906 15 42.2642 15C51.3208 15 59.4717 19.5 64.6038 26.4L69.1321 22.5C63.0944 14.4 53.434 9 42.2642 9C26.5661 9 13.2831 20.1 9.9623 34.8L49.8114 74.4C64.3019 70.8 75.4717 57.6 75.4717 42ZM9.05664 42.3C9.05664 50.7 12.3774 58.8 18.717 65.1C25.0566 71.4 33.5095 74.7 41.6604 74.7L9.05664 42.3Z" fill="white"/>
<path d="M42.2642 0C19.0189 0 0 18.9 0 42C0 65.1 19.0189 84 42.2642 84C65.5094 84 84.5283 65.1 84.5283 42C84.5283 18.9 65.5094 0 42.2642 0ZM18.717 65.4C12.3774 59.1 9.0566 50.7 9.0566 42.6L41.9623 75C33.5094 74.7 25.0566 71.7 18.717 65.4ZM49.5094 74.1L9.96226 34.8C13.283 20.1 26.566 9 42.2642 9C53.434 9 63.0943 14.4 69.1321 22.5L64.6038 26.4C59.4717 19.5 51.3208 15 42.2642 15C30.4906 15 20.5283 22.5 16.6038 33L51.3208 67.5C60.0755 64.5 66.717 57 68.8302 48H54.3396V42H75.4717C75.4717 57.6 64.3019 70.8 49.5094 74.1Z" fill="#663399"/>
</g>
<defs>
<clipPath id="clip0_421_2779">
<rect width="320" height="84" fill="white"/>
</clipPath>
</defs>
</svg>
