<svg width="178" height="29" viewBox="0 0 178 29" fill="none" xmlns="http://www.w3.org/2000/svg">
<path d="M49.7891 10.8438L49.3984 11.8594C48.8255 13.3438 48.1484 14.4635 47.3672 15.2188C46.7552 15.8047 46.1042 16.1823 45.4141 16.3516V19.9648C45.3359 20.7461 44.9062 21.1693 44.125 21.2344C43.7604 21.2344 43.4414 21.1172 43.168 20.8828C42.9076 20.6354 42.7773 20.3294 42.7773 19.9648V16.4297H38.207C37.8555 16.4167 37.556 16.293 37.3086 16.0586C37.0742 15.8112 36.9505 15.5117 36.9375 15.1602C36.9375 14.7956 37.0547 14.4831 37.2891 14.2227C37.5365 13.9622 37.8424 13.8255 38.207 13.8125H44.1445C44.6393 13.7865 45.1016 13.5977 45.5312 13.2461C45.974 12.8945 46.306 12.4974 46.5273 12.0547C46.7487 11.599 46.9505 11.1172 47.1328 10.6094L47.3672 9.98438C47.4583 9.71093 47.5885 9.48957 47.7578 9.3203C47.9401 9.13801 48.2135 9.04688 48.5781 9.04688C48.9297 9.04688 49.2292 9.17708 49.4766 9.4375C49.737 9.69792 49.8672 10.0104 49.8672 10.375C49.8672 10.5443 49.8411 10.7005 49.7891 10.8438Z" fill="#663399"/>
<path d="M57.0547 8.89062C57.4062 8.90366 57.6862 9.03385 57.8945 9.28125C58.1159 9.51562 58.2135 9.80859 58.1875 10.1602V10.1797H65.6289C65.9935 10.1797 66.306 10.3034 66.5664 10.5508C66.8138 10.8112 66.9375 11.1237 66.9375 11.4883C66.9375 11.8529 66.8073 12.1654 66.5469 12.4258C66.2995 12.6732 65.9935 12.7969 65.6289 12.7969H63.6953L63.3438 15.3359C63.2135 16.2604 62.9727 17.1328 62.6211 17.9531C62.2435 18.7734 61.7161 19.4701 61.0391 20.043C60.375 20.6029 59.5872 20.9089 58.6758 20.9609H56.4883C56.1367 20.9479 55.8372 20.8242 55.5898 20.5898C55.3555 20.3424 55.2318 20.043 55.2188 19.6914C55.2188 19.3268 55.3359 19.0143 55.5703 18.7539C55.8177 18.4935 56.1237 18.3568 56.4883 18.3438H58.3633C58.8581 18.3177 59.2878 18.1289 59.6523 17.7773C60.0299 17.4258 60.2904 17.0286 60.4336 16.5859C60.5768 16.1302 60.681 15.6354 60.7461 15.1016L61.0586 12.7969H57.6602C57.569 13.0833 57.4648 13.3698 57.3477 13.6562C56.9701 14.4766 56.4427 15.1732 55.7656 15.7461C55.1016 16.306 54.3138 16.612 53.4023 16.6641H52.9727C52.6211 16.651 52.3216 16.5273 52.0742 16.293C51.8398 16.0456 51.7161 15.7461 51.7031 15.3945C51.7031 15.0299 51.8203 14.7174 52.0547 14.457C52.3021 14.1966 52.6081 14.0599 52.9727 14.0469H53.0898C53.5846 14.0208 54.0143 13.832 54.3789 13.4805C54.7565 13.1289 55.0169 12.7318 55.1602 12.2891C55.3034 11.8333 55.4076 11.3385 55.4727 10.8047L55.5508 10.1602C55.6159 9.79557 55.7917 9.49609 56.0781 9.26172C56.3646 9.01432 56.6901 8.89062 57.0547 8.89062Z" fill="#663399"/>
<path d="M69.0273 10.7461C69.0273 10.3815 69.151 10.0755 69.3984 9.82812C69.6589 9.56771 69.9714 9.4375 70.3359 9.4375H80.1406C80.5052 9.4375 80.8177 9.5612 81.0781 9.80859C81.3255 10.069 81.4492 10.3815 81.4492 10.7461C81.4492 11.1107 81.319 11.4232 81.0586 11.6836C80.8112 11.931 80.5052 12.0547 80.1406 12.0547H70.3359C69.9714 12.0547 69.6654 11.9245 69.418 11.6641C69.1576 11.4167 69.0273 11.1107 69.0273 10.7461ZM69.1055 15.1211C69.1055 14.7565 69.2292 14.4505 69.4766 14.2031C69.737 13.9427 70.0495 13.8125 70.4141 13.8125H80.2188C80.5833 13.8125 80.8958 13.9362 81.1562 14.1836C81.4036 14.444 81.5273 14.7565 81.5273 15.1211C81.5273 15.4857 81.3971 15.7982 81.1367 16.0586C80.8893 16.306 80.5833 16.4297 80.2188 16.4297H77.4648C77.3997 16.9505 77.2956 17.4583 77.1523 17.9531C76.8919 18.7734 76.4622 19.4701 75.8633 20.043C75.2773 20.6029 74.5286 20.9089 73.6172 20.9609H70.4922C70.1406 20.9479 69.8411 20.8242 69.5938 20.5898C69.3594 20.3424 69.2357 20.043 69.2227 19.6914C69.2227 19.3268 69.3398 19.0143 69.5742 18.7539C69.8216 18.4935 70.1276 18.3568 70.4922 18.3438H72.9531C73.4479 18.3177 73.8581 18.1289 74.1836 17.7773C74.5091 17.4258 74.7174 17.0221 74.8086 16.5664C74.8086 16.5273 74.8151 16.4818 74.8281 16.4297H70.4141C70.0495 16.4297 69.7435 16.2995 69.4961 16.0391C69.2357 15.7917 69.1055 15.4857 69.1055 15.1211Z" fill="#663399"/>
<path d="M85.5117 9.125C85.8633 9.13802 86.1628 9.26823 86.4102 9.51562C86.6576 9.75 86.7878 10.043 86.8008 10.3945V17.3867C86.7878 18.3763 86.5469 19.4115 86.0781 20.4922C85.7005 21.1693 85.1341 21.3841 84.3789 21.1367C84.0534 20.9805 83.8125 20.7396 83.6562 20.4141C83.513 20.0885 83.513 19.763 83.6562 19.4375C83.9948 18.6823 84.1641 18.0247 84.1641 17.4648V10.3945C84.1771 10.0299 84.3138 9.73047 84.5742 9.49609C84.8346 9.2487 85.1471 9.125 85.5117 9.125ZM89.9258 9.125C90.2773 9.13802 90.5768 9.26823 90.8242 9.51562C91.0716 9.75 91.2018 10.043 91.2148 10.3945V17.875C91.2148 18.0703 91.293 18.2526 91.4492 18.4219C91.6706 18.6432 92.0156 18.6628 92.4844 18.4805C92.9531 18.2982 93.7409 17.6797 94.8477 16.625C95.1471 16.3906 95.4792 16.2799 95.8438 16.293C96.2214 16.306 96.5469 16.4232 96.8203 16.6445C97.0807 16.9049 97.2109 17.1979 97.2109 17.5234C97.2109 17.8359 97.0807 18.1159 96.8203 18.3633L94.5742 20.375C93.9102 20.9089 93.168 21.2344 92.3477 21.3516C91.5273 21.4818 90.694 21.306 89.8477 20.8242C89.0013 20.3294 88.5781 19.3789 88.5781 17.9727V10.3945C88.5911 10.0299 88.7279 9.73047 88.9883 9.49609C89.2487 9.2487 89.5612 9.125 89.9258 9.125Z" fill="#663399"/>
<path d="M99.3984 10.7461C99.3984 10.3815 99.5221 10.0755 99.7695 9.82812C100.03 9.56771 100.342 9.4375 100.707 9.4375H106.371C106.736 9.4375 107.048 9.5612 107.309 9.80859C107.556 10.069 107.68 10.3815 107.68 10.7461C107.68 11.1107 107.549 11.4232 107.289 11.6836C107.042 11.931 106.736 12.0547 106.371 12.0547H100.707C100.342 12.0547 100.036 11.9245 99.7891 11.6641C99.5286 11.4167 99.3984 11.1107 99.3984 10.7461ZM99.4766 14.8086C99.4766 14.444 99.6003 14.138 99.8477 13.8906C100.108 13.6302 100.421 13.5 100.785 13.5H105.824C106.189 13.5 106.501 13.6237 106.762 13.8711C107.009 14.1315 107.133 14.444 107.133 14.8086C107.133 15.1732 107.003 15.4857 106.742 15.7461C106.495 15.9935 106.189 16.1172 105.824 16.1172H100.785C100.421 16.1172 100.115 15.987 99.8672 15.7266C99.6068 15.4792 99.4766 15.1732 99.4766 14.8086ZM111.586 9.125C111.938 9.13802 112.217 9.26823 112.426 9.51562C112.647 9.75 112.745 10.043 112.719 10.3945L112.055 15.3359C111.924 16.2604 111.684 17.1328 111.332 17.9531C110.954 18.7734 110.427 19.4701 109.75 20.043C109.086 20.6029 108.298 20.9089 107.387 20.9609H103.715C103.363 20.9479 103.064 20.8242 102.816 20.5898C102.582 20.3424 102.458 20.043 102.445 19.6914C102.445 19.3268 102.562 19.0143 102.797 18.7539C103.044 18.4935 103.35 18.3568 103.715 18.3438H107.074C107.569 18.3177 107.999 18.1289 108.363 17.7773C108.741 17.4258 109.001 17.0286 109.145 16.5859C109.288 16.1302 109.392 15.6354 109.457 15.1016L110.082 10.3945C110.147 10.0299 110.323 9.73047 110.609 9.49609C110.896 9.2487 111.221 9.125 111.586 9.125Z" fill="#663399"/>
<path d="M115.023 10.7461C115.023 10.3815 115.147 10.0755 115.395 9.82812C115.655 9.56771 115.967 9.4375 116.332 9.4375H126.137C126.501 9.4375 126.814 9.5612 127.074 9.80859C127.322 10.069 127.445 10.3815 127.445 10.7461C127.445 10.9805 127.393 11.1953 127.289 11.3906L124.594 15.8242L127.992 19.0469C128.5 19.6328 128.507 20.2318 128.012 20.8438C127.764 21.1042 127.458 21.2539 127.094 21.293C126.742 21.332 126.436 21.2214 126.176 20.9609L123.07 18.0312C122.51 18.7344 121.938 19.3073 121.352 19.75C120.349 20.5052 119.379 20.9089 118.441 20.9609H116.41C116.059 20.9479 115.759 20.8242 115.512 20.5898C115.277 20.3424 115.154 20.043 115.141 19.6914C115.141 19.3268 115.258 19.0143 115.492 18.7539C115.74 18.4935 116.046 18.3568 116.41 18.3438H118.246C118.741 18.3177 119.255 18.1289 119.789 17.7773C120.323 17.4258 120.766 17.0286 121.117 16.5859C121.469 16.1302 121.801 15.6354 122.113 15.1016L123.93 12.0547H116.332C115.967 12.0547 115.661 11.9245 115.414 11.6641C115.154 11.4167 115.023 11.1107 115.023 10.7461Z" fill="#663399"/>
<path d="M130.766 10.7461C130.766 10.3815 130.889 10.0755 131.137 9.82812C131.397 9.56771 131.71 9.4375 132.074 9.4375H141.879C142.243 9.4375 142.556 9.5612 142.816 9.80859C143.064 10.069 143.188 10.3815 143.188 10.7461C143.188 11.1107 143.057 11.4232 142.797 11.6836C142.549 11.931 142.243 12.0547 141.879 12.0547H132.074C131.71 12.0547 131.404 11.9245 131.156 11.6641C130.896 11.4167 130.766 11.1107 130.766 10.7461ZM130.844 15.1211C130.844 14.7565 130.967 14.4505 131.215 14.2031C131.475 13.9427 131.788 13.8125 132.152 13.8125H141.957C142.322 13.8125 142.634 13.9362 142.895 14.1836C143.142 14.444 143.266 14.7565 143.266 15.1211C143.266 15.4857 143.135 15.7982 142.875 16.0586C142.628 16.306 142.322 16.4297 141.957 16.4297H139.203C139.138 16.9505 139.034 17.4583 138.891 17.9531C138.63 18.7734 138.201 19.4701 137.602 20.043C137.016 20.6029 136.267 20.9089 135.355 20.9609H132.23C131.879 20.9479 131.579 20.8242 131.332 20.5898C131.098 20.3424 130.974 20.043 130.961 19.6914C130.961 19.3268 131.078 19.0143 131.312 18.7539C131.56 18.4935 131.866 18.3568 132.23 18.3438H134.691C135.186 18.3177 135.596 18.1289 135.922 17.7773C136.247 17.4258 136.456 17.0221 136.547 16.5664C136.547 16.5273 136.553 16.4818 136.566 16.4297H132.152C131.788 16.4297 131.482 16.2995 131.234 16.0391C130.974 15.7917 130.844 15.4857 130.844 15.1211Z" fill="#663399"/>
<path d="M156.996 20.9609H146.801C146.436 20.9609 146.124 20.8372 145.863 20.5898C145.59 20.3034 145.466 19.9909 145.492 19.6523L146.117 15.0625C146.247 14.138 146.488 13.2656 146.84 12.4453C147.217 11.625 147.738 10.9349 148.402 10.375C149.079 9.80208 149.874 9.48958 150.785 9.4375H152.582C152.934 9.45052 153.227 9.58073 153.461 9.82812C153.708 10.0625 153.839 10.3555 153.852 10.707C153.852 11.0716 153.728 11.3841 153.48 11.6445C153.246 11.9049 152.947 12.0417 152.582 12.0547H151.098C150.603 12.0807 150.167 12.2695 149.789 12.6211C149.424 12.9727 149.171 13.3763 149.027 13.832C148.884 14.2747 148.78 14.763 148.715 15.2969L148.363 17.8555C148.324 18.168 148.435 18.3307 148.695 18.3438H155.551C155.993 18.3307 156.208 18.1094 156.195 17.6797V14.6914C156.273 13.9102 156.703 13.487 157.484 13.4219C157.849 13.4219 158.161 13.5456 158.422 13.793C158.695 14.0273 158.832 14.3268 158.832 14.6914V19.2227C158.819 19.7695 158.656 20.1992 158.344 20.5117C158.031 20.8112 157.582 20.9609 156.996 20.9609Z" fill="#663399"/>
<path d="M0 5C0 2.23858 2.23858 0 5 0H24C26.7614 0 29 2.23858 29 5V24C29 26.7614 26.7614 29 24 29H5C2.23858 29 0 26.7614 0 24V5Z" fill="white"/>
<path fill-rule="evenodd" clip-rule="evenodd" d="M24 1H5C2.79086 1 1 2.79086 1 5V24C1 26.2091 2.79086 28 5 28H24C26.2091 28 28 26.2091 28 24V5C28 2.79086 26.2091 1 24 1ZM5 0C2.23858 0 0 2.23858 0 5V24C0 26.7614 2.23858 29 5 29H24C26.7614 29 29 26.7614 29 24V5C29 2.23858 26.7614 0 24 0H5Z" fill="#663399"/>
<path d="M2 7C2 4.23858 4.23858 2 7 2H22C24.7614 2 27 4.23858 27 7V22C27 24.7614 24.7614 27 22 27H7C4.23858 27 2 24.7614 2 22V7Z" fill="#663399"/>
<path d="M13.2734 6.90625L13.0391 7.51562C12.6953 8.40626 12.2891 9.07812 11.8203 9.53125C11.4531 9.88281 11.0625 10.1094 10.6484 10.2109V12.3789C10.6016 12.8477 10.3438 13.1016 9.875 13.1406C9.65625 13.1406 9.46484 13.0703 9.30078 12.9297C9.14453 12.7812 9.06641 12.5977 9.06641 12.3789V10.2578H6.32422C6.11328 10.25 5.93359 10.1758 5.78516 10.0352C5.64453 9.88672 5.57031 9.70703 5.5625 9.49609C5.5625 9.27734 5.63281 9.08984 5.77344 8.93359C5.92188 8.77734 6.10547 8.69531 6.32422 8.6875H9.88672C10.1836 8.67188 10.4609 8.55859 10.7188 8.34766C10.9844 8.13672 11.1836 7.89844 11.3164 7.63281C11.4492 7.35938 11.5703 7.07032 11.6797 6.76562L11.8203 6.39062C11.875 6.22657 11.9531 6.09375 12.0547 5.99219C12.1641 5.88281 12.3281 5.82812 12.5469 5.82812C12.7578 5.82812 12.9375 5.90625 13.0859 6.0625C13.2422 6.21875 13.3203 6.40625 13.3203 6.625C13.3203 6.72656 13.3047 6.82031 13.2734 6.90625Z" fill="white"/>
<path d="M18.4727 5.73438C18.6837 5.74218 18.8516 5.82031 18.9766 5.96875C19.1094 6.10938 19.168 6.28516 19.1524 6.49609V6.50781H23.6172C23.836 6.50781 24.0235 6.58203 24.1797 6.73047C24.3282 6.88672 24.4024 7.07422 24.4024 7.29297C24.4024 7.51172 24.3243 7.69922 24.168 7.85547C24.0196 8.00391 23.836 8.07812 23.6172 8.07812H22.4571L22.2462 9.60155C22.168 10.1562 22.0235 10.6797 21.8126 11.1719C21.586 11.6641 21.2696 12.082 20.8633 12.4258C20.4649 12.7617 19.9922 12.9453 19.4454 12.9766H18.1329C17.9219 12.9688 17.7422 12.8945 17.5938 12.7539C17.4532 12.6055 17.379 12.4258 17.3712 12.2148C17.3712 11.9961 17.4415 11.8086 17.5821 11.6523C17.7305 11.4961 17.9141 11.4141 18.1329 11.4062H19.2579C19.5547 11.3906 19.8126 11.2773 20.0313 11.0664C20.2579 10.8555 20.4141 10.6172 20.5001 10.3516C20.586 10.0781 20.6485 9.78125 20.6876 9.46094L20.8751 8.07812H18.836C18.7813 8.25 18.7188 8.42188 18.6485 8.59375C18.4219 9.08594 18.1055 9.50391 17.6993 9.84766C17.3008 10.1836 16.8282 10.3672 16.2813 10.3984H16.0235C15.8126 10.3906 15.6329 10.3164 15.4844 10.1758C15.3438 10.0273 15.2696 9.84765 15.2618 9.63671C15.2618 9.41796 15.3321 9.23046 15.4727 9.07421C15.6212 8.91796 15.8047 8.83594 16.0235 8.82812H16.0938C16.3907 8.8125 16.6485 8.69922 16.8672 8.48828C17.0938 8.27734 17.2501 8.03906 17.336 7.77344C17.4219 7.5 17.4844 7.20312 17.5235 6.88281L17.5704 6.49609C17.6094 6.27734 17.7149 6.09766 17.8868 5.95703C18.0587 5.80859 18.254 5.73438 18.4727 5.73438Z" fill="white"/>
<path d="M5.70312 16.8477C5.70312 16.6289 5.77734 16.4453 5.92578 16.2969C6.08203 16.1406 6.26953 16.0625 6.48828 16.0625H12.3711C12.5898 16.0625 12.7773 16.1367 12.9336 16.2852C13.082 16.4414 13.1562 16.6289 13.1562 16.8477C13.1562 17.0664 13.0781 17.2539 12.9219 17.4102C12.7734 17.5586 12.5898 17.6328 12.3711 17.6328H6.48828C6.26953 17.6328 6.08594 17.5547 5.9375 17.3984C5.78125 17.25 5.70312 17.0664 5.70312 16.8477ZM5.75 19.4727C5.75 19.2539 5.82422 19.0703 5.97266 18.9219C6.12891 18.7656 6.31641 18.6875 6.53516 18.6875H12.418C12.6367 18.6875 12.8242 18.7617 12.9805 18.9102C13.1289 19.0664 13.2031 19.2539 13.2031 19.4727C13.2031 19.6914 13.125 19.8789 12.9688 20.0352C12.8203 20.1836 12.6367 20.2578 12.418 20.2578H10.7656C10.7266 20.5703 10.6641 20.875 10.5781 21.1719C10.4219 21.6641 10.1641 22.082 9.8047 22.4258C9.45312 22.7617 9.00392 22.9453 8.45704 22.9766H6.58203C6.37109 22.9688 6.19141 22.8945 6.04297 22.7539C5.90234 22.6055 5.82812 22.4258 5.82031 22.2148C5.82031 21.9961 5.89062 21.8086 6.03125 21.6523C6.17969 21.4961 6.36328 21.4141 6.58203 21.4062H8.05859C8.35547 21.3906 8.60156 21.2773 8.79688 21.0664C8.99219 20.8555 9.11719 20.6133 9.17188 20.3398C9.17188 20.3164 9.17578 20.2891 9.18359 20.2578H6.53516C6.31641 20.2578 6.13281 20.1797 5.98438 20.0234C5.82812 19.875 5.75 19.6914 5.75 19.4727Z" fill="white"/>
<path d="M16.4338 15.875C16.6447 15.8828 16.8244 15.9609 16.9728 16.1094C17.1213 16.25 17.1994 16.4258 17.2072 16.6367V20.832C17.1994 21.4258 17.0548 22.0469 16.7736 22.6953C16.547 23.1016 16.2072 23.2305 15.7541 23.082C15.5588 22.9883 15.4142 22.8438 15.3205 22.6484C15.2345 22.4531 15.2345 22.2578 15.3205 22.0625C15.5236 21.6094 15.6252 21.2148 15.6252 20.8789V16.6367C15.633 16.418 15.715 16.2383 15.8713 16.0977C16.0275 15.9492 16.215 15.875 16.4338 15.875ZM19.0822 15.875C19.2931 15.8828 19.4728 15.9609 19.6213 16.1094C19.7697 16.25 19.8478 16.4258 19.8556 16.6367V21.125C19.8556 21.2422 19.9025 21.3516 19.9963 21.4531C20.1291 21.5859 20.3361 21.5977 20.6173 21.4883C20.8986 21.3789 21.3713 21.0078 22.0353 20.375C22.215 20.2344 22.4142 20.168 22.633 20.1758C22.8595 20.1836 23.0548 20.2539 23.2189 20.3867C23.3752 20.543 23.4533 20.7188 23.4533 20.9141C23.4533 21.1016 23.3752 21.2695 23.2189 21.418L21.8713 22.625C21.4728 22.9453 21.0275 23.1406 20.5353 23.2109C20.0431 23.2891 19.5431 23.1836 19.0353 22.8945C18.5275 22.5977 18.2736 22.0273 18.2736 21.1836V16.6367C18.2814 16.418 18.3634 16.2383 18.5197 16.0977C18.6759 15.9492 18.8634 15.875 19.0822 15.875Z" fill="white"/>
<path fill-rule="evenodd" clip-rule="evenodd" d="M165 29H36V28H165V29Z" fill="#663399"/>
<path d="M164 25H168V29H164V25Z" fill="#663399"/>
<path d="M169 25H173V29H169V25Z" fill="#663399"/>
<path d="M169 20H173V24H169V20Z" fill="#663399"/>
<path d="M174 25H178V29H174V25Z" fill="#663399"/>
<path d="M174 20H178V24H174V20Z" fill="#663399"/>
<path d="M174 15H178V19H174V15Z" fill="#663399"/>
</svg>
