<svg width="80" height="80" viewBox="0 0 80 80" fill="none" xmlns="http://www.w3.org/2000/svg">
<rect x="1" y="1" width="78" height="78" rx="39" fill="white" stroke="#663399" stroke-width="2"/>
<path d="M40.5427 21.5991H37.7356V61.5433H40.5427V21.5991Z" fill="white"/>
<path opacity="0.1" d="M40.5383 19.1787H37.74V60.9485H40.5383V19.1787Z" fill="#040000"/>
<path d="M43.7333 27.196H17.3537C17.2491 27.196 17.1445 27.1873 17.0398 27.1785C16.9527 27.161 16.8655 27.1437 16.7783 27.1262C16.7348 27.1175 16.6912 27.1087 16.6562 27.0914C16.5865 27.0652 16.5168 27.0478 16.4558 27.013C16.3599 26.9781 16.2727 26.9345 16.1855 26.8821L16.1769 26.8735C16.1158 26.8387 16.0548 26.8038 16.0025 26.7689C15.959 26.7428 15.9154 26.7078 15.8718 26.6556C15.7497 26.5597 15.6364 26.455 15.5405 26.333C15.5057 26.2981 15.462 26.2545 15.4359 26.1935C15.3313 26.0627 15.2528 25.9146 15.1831 25.7576C15.1482 25.6617 15.1134 25.5745 15.0872 25.4787C15.061 25.3827 15.0349 25.2782 15.0262 25.1735C15.0087 25.0602 15 24.9555 15 24.8423V17.3624C15 16.0636 16.0636 15 17.3537 15H31.5373L31.9906 15.4533L34.0654 17.5367L34.0741 17.5454L36.3669 19.8383L36.6808 20.1521L36.6895 20.1607L37.0033 20.4659L37.012 20.4746L37.7442 21.2068L38.1365 21.5991L38.2673 21.7299L40.4292 23.9006L40.5426 24.014L40.8826 24.3452L41.0744 24.537L43.7333 27.196Z" fill="#7DB78C"/>
<path d="M58.5185 41.9812H17.3537C16.9266 41.9812 16.5256 41.8591 16.1855 41.6673C16.1594 41.6498 16.1332 41.6411 16.1158 41.6237C16.0897 41.6063 16.0723 41.5889 16.0461 41.5714C15.9764 41.5364 15.9153 41.4841 15.8631 41.4318C15.7148 41.3272 15.5841 41.1878 15.4708 41.0309C15.4185 40.9699 15.3749 40.9001 15.3312 40.8129C15.2789 40.7258 15.2267 40.6472 15.1918 40.5427L15.1831 40.534C15.1482 40.4555 15.1134 40.3509 15.0872 40.255C15.061 40.1504 15.0349 40.0458 15.0262 39.9412C15.0087 39.8366 15 39.732 15 39.6188V32.1477C15 30.8574 16.0636 29.7939 17.3537 29.7939H46.3225L46.7671 30.2299L52.6776 36.1317L52.6863 36.1404L54.6652 38.1281L54.6739 38.1368L58.5185 41.9812Z" fill="#7DB78C"/>
<path d="M63.287 17.3624V24.8422C63.287 26.1324 62.2322 27.1959 60.9333 27.1959H17.3537C17.2491 27.1959 17.1445 27.1872 17.0398 27.1784C16.9875 27.1697 16.9439 27.1697 16.8917 27.1609C16.8568 27.1522 16.8132 27.1435 16.7784 27.1261C16.7349 27.1174 16.6913 27.1086 16.6563 27.0913C16.5866 27.0651 16.5169 27.0477 16.4559 27.0129C16.36 26.978 16.2728 26.9344 16.1856 26.882L16.177 26.8734C16.1159 26.8386 16.0549 26.8037 16.0026 26.7688C15.9591 26.7427 15.9155 26.7077 15.8719 26.6555C15.7498 26.5596 15.6365 26.4549 15.5406 26.3329C15.5058 26.298 15.4621 26.2544 15.436 26.1934C15.3313 26.0626 15.2529 25.9145 15.1832 25.7575C15.1483 25.6616 15.1135 25.5744 15.0873 25.4786C15.0611 25.3826 15.035 25.2781 15.0263 25.1734C15.0087 25.0602 15 24.9555 15 24.8423V17.3624C15 16.0636 16.0636 15 17.3537 15H60.9332C61.064 15 61.1947 15.0087 61.3167 15.0349C61.3429 15.0349 61.3777 15.0436 61.4039 15.0522C61.4475 15.0609 61.491 15.0697 61.526 15.0784C61.5783 15.0871 61.6219 15.1046 61.6654 15.122C61.7439 15.1568 61.8224 15.183 61.8921 15.2093C62.049 15.279 62.206 15.3749 62.3454 15.4708C62.3978 15.5144 62.45 15.5578 62.4936 15.6103C62.5459 15.6451 62.5981 15.6976 62.6505 15.7498L62.6592 15.7672H62.6679C63.0517 16.1943 63.287 16.7436 63.287 17.3624Z" fill="#5B7F84"/>
<path opacity="0.06" d="M62.6593 15.7671C62.3105 15.5753 61.9183 15.4534 61.4998 15.4534H17.9204C16.6215 15.4534 15.5666 16.5082 15.5666 17.8071V25.2869C15.5666 25.4351 15.5841 25.6006 15.6102 25.7314C15.6188 25.7924 15.6363 25.8622 15.6538 25.9146C15.7497 26.2807 15.9327 26.6031 16.1769 26.8734C16.1158 26.8386 16.0548 26.8037 16.0025 26.7688C15.959 26.7427 15.9154 26.7077 15.8718 26.6555C15.7497 26.5596 15.6364 26.4549 15.5405 26.3329C15.5057 26.298 15.462 26.2544 15.4359 26.1934C15.3313 26.0626 15.2528 25.9145 15.1831 25.7575C15.1482 25.6616 15.1134 25.5744 15.0872 25.4786C15.061 25.3826 15.0349 25.2781 15.0262 25.1734C15.0087 25.0602 15 24.9555 15 24.8423V17.3624C15 16.0636 16.0636 15 17.3537 15H60.9332C61.064 15 61.1947 15.0087 61.3167 15.0349C61.3429 15.0349 61.3777 15.0436 61.4039 15.0522C61.4475 15.0609 61.491 15.0697 61.526 15.0784C61.5783 15.0871 61.6219 15.1046 61.6654 15.122C61.7439 15.1568 61.8224 15.183 61.8921 15.2093C62.049 15.279 62.206 15.3749 62.3454 15.4708C62.3978 15.5144 62.45 15.5578 62.4936 15.6103C62.5459 15.6451 62.5981 15.6976 62.6505 15.7498L62.6593 15.7671Z" fill="white"/>
<path d="M54.1229 23.4525C53.2727 23.4525 52.5771 22.7569 52.5771 21.9068C52.5771 21.0566 53.2728 20.3611 54.1229 20.3611C54.973 20.3611 55.6686 21.0567 55.6686 21.9068C55.6686 22.7569 54.973 23.4525 54.1229 23.4525Z" fill="#C55288"/>
<path d="M57.8682 23.4525C57.018 23.4525 56.3225 22.7569 56.3225 21.9068C56.3225 21.0566 57.0181 20.3611 57.8682 20.3611C58.7184 20.3611 59.4139 21.0567 59.4139 21.9068C59.414 22.7569 58.7184 23.4525 57.8682 23.4525Z" fill="#B2C757"/>
<path d="M47.1226 21.7336H17.3091V24.3489H47.1226V21.7336Z" fill="#446058"/>
<path opacity="0.08" d="M47.1228 23.9006H17.3093V24.5362H47.1228V23.9006Z" fill="#E3E2E2"/>
<path d="M47.1226 17.5398H17.3091V20.155H47.1226V17.5398Z" fill="#446058"/>
<path opacity="0.08" d="M47.1228 19.8374H17.3093V20.4729H47.1228V19.8374Z" fill="#E3E2E2"/>
<path d="M63.287 32.1477V39.6188C63.287 40.9177 62.2322 41.9812 60.9333 41.9812H17.3537C16.9266 41.9812 16.5256 41.8591 16.1855 41.6673C16.1769 41.6586 16.1769 41.6586 16.1769 41.6498C16.1594 41.6411 16.1333 41.6237 16.1158 41.6237C16.0897 41.6063 16.0723 41.5889 16.0461 41.5714C15.9764 41.5364 15.9153 41.4841 15.8631 41.4318C15.7148 41.3272 15.5841 41.1878 15.4708 41.0309C15.4185 40.9699 15.3749 40.9001 15.3312 40.8129C15.2789 40.7258 15.2267 40.6472 15.1918 40.5427L15.1831 40.534C15.1482 40.4555 15.1134 40.3509 15.0872 40.255C15.061 40.1504 15.0349 40.0458 15.0262 39.9412C15.0087 39.8366 15 39.732 15 39.6188V32.1477C15 30.8574 16.0636 29.7939 17.3537 29.7939H60.9332C61.064 29.7939 61.1947 29.7939 61.3167 29.8201C61.3429 29.8201 61.3777 29.8288 61.4039 29.8376C61.4475 29.8551 61.491 29.8551 61.526 29.8638C61.5783 29.8724 61.6219 29.8898 61.6654 29.9073C61.7439 29.9248 61.8224 29.9683 61.8921 30.0032C62.1798 30.1166 62.4326 30.2997 62.6505 30.535C63.0517 30.962 63.287 31.5287 63.287 32.1477Z" fill="#5B7F84"/>
<path opacity="0.06" d="M62.6506 30.5349C62.3105 30.3519 61.9096 30.2298 61.4998 30.2298H17.9204C16.6215 30.2298 15.5666 31.3021 15.5666 32.5922V40.072C15.5666 40.6821 15.7933 41.2227 16.1769 41.6498C16.1769 41.6585 16.1769 41.6585 16.1855 41.6673C16.1594 41.6498 16.1332 41.6411 16.1158 41.6237C16.0897 41.6063 16.0723 41.5889 16.0461 41.5714C15.9764 41.5364 15.9153 41.4841 15.8631 41.4318C15.7148 41.3272 15.5841 41.1878 15.4708 41.0309C15.4185 40.9699 15.3749 40.9001 15.3312 40.8129C15.2789 40.7258 15.2267 40.6472 15.1918 40.5427L15.1831 40.534C15.1482 40.4555 15.1134 40.3509 15.0872 40.255C15.061 40.1504 15.0349 40.0458 15.0262 39.9412C15.0087 39.8366 15 39.732 15 39.6188V32.1477C15 30.8574 16.0636 29.7939 17.3537 29.7939H60.9332C61.064 29.7939 61.1947 29.7939 61.3167 29.8201C61.3429 29.8201 61.3777 29.8288 61.4039 29.8376C61.4475 29.8551 61.491 29.8551 61.526 29.8638C61.5783 29.8724 61.6219 29.8898 61.6654 29.9073C61.7439 29.9248 61.8224 29.9683 61.8921 30.0032C62.1799 30.1165 62.4326 30.2996 62.6506 30.5349Z" fill="white"/>
<path d="M54.1229 38.235C53.2727 38.235 52.5771 37.5394 52.5771 36.6893C52.5771 35.8391 53.2728 35.1436 54.1229 35.1436C54.973 35.1436 55.6686 35.8392 55.6686 36.6893C55.6686 37.5394 54.973 38.235 54.1229 38.235Z" fill="#C55288"/>
<path d="M57.8682 38.235C57.018 38.235 56.3225 37.5394 56.3225 36.6893C56.3225 35.8391 57.0181 35.1436 57.8682 35.1436C58.7184 35.1436 59.4139 35.8392 59.4139 36.6893C59.414 37.5394 58.7184 38.235 57.8682 38.235Z" fill="#B2C757"/>
<path d="M47.1226 36.5161H17.3091V39.1313H47.1226V36.5161Z" fill="#446058"/>
<path opacity="0.08" d="M47.1228 38.6831H17.3093V39.3187H47.1228V38.6831Z" fill="#E3E2E2"/>
<path d="M47.1226 32.3223H17.3091V34.9375H47.1226V32.3223Z" fill="#446058"/>
<path opacity="0.08" d="M47.1228 34.6196H17.3093V35.2552H47.1228V34.6196Z" fill="#E3E2E2"/>
<path opacity="0.1" d="M40.547 56.0034H37.74V57.5203H40.547V56.0034Z" fill="#040000"/>
<path d="M48.7954 60.9485H29.4829V63.7555H48.7954V60.9485Z" fill="white"/>
<path d="M63.287 46.924V54.4124C63.287 55.7113 62.2322 56.7661 60.9333 56.7661H17.3537C16.9266 56.7661 16.5256 56.6441 16.1855 56.4436C16.1245 56.4087 16.0635 56.3738 16.0024 56.3389C15.9589 56.2954 15.9153 56.2692 15.8717 56.2257C15.8106 56.1734 15.7583 56.1384 15.7061 56.0775L15.5404 55.9118C15.5229 55.8769 15.4968 55.842 15.4707 55.8159C15.4184 55.7461 15.3748 55.6851 15.3312 55.5979C15.2788 55.5107 15.2266 55.4149 15.1917 55.3277C15.1917 55.319 15.183 55.319 15.183 55.319C15.1481 55.223 15.1133 55.136 15.0871 55.0487C15.0609 54.9353 15.0348 54.8395 15.0261 54.7261C15.0087 54.6303 15 54.5169 15 54.4124V46.924C15 45.625 16.0636 44.5789 17.3537 44.5789H60.9332C60.9941 44.5789 61.0552 44.5789 61.1162 44.5875C61.1686 44.5875 61.2208 44.5962 61.2644 44.605C61.3167 44.6137 61.3777 44.6137 61.43 44.6225C61.6043 44.6574 61.7787 44.7184 61.9356 44.7968C61.9967 44.8317 62.0489 44.8492 62.11 44.8928C62.3105 45.006 62.5022 45.1456 62.6592 45.3288H62.6679C63.0165 45.7036 63.2345 46.2005 63.278 46.7497C63.287 46.8019 63.287 46.8629 63.287 46.924Z" fill="#5B7F84"/>
<path opacity="0.06" d="M62.6593 45.3287C62.328 45.1368 61.9531 45.0322 61.5608 45.0235H17.9204C16.6215 45.0235 15.5666 46.0871 15.5666 47.3685V54.8571C15.5666 55.476 15.802 56.0252 16.1855 56.4438C16.1245 56.4089 16.0635 56.374 16.0024 56.3391C15.9589 56.2956 15.9153 56.2694 15.8717 56.2259C15.8106 56.1736 15.7583 56.1386 15.7061 56.0777L15.5404 55.912C15.5229 55.8771 15.4968 55.8422 15.4707 55.8161C15.4184 55.7463 15.3748 55.6853 15.3312 55.5981C15.2788 55.5109 15.2266 55.4151 15.1917 55.3279C15.1917 55.3192 15.183 55.3192 15.183 55.3192C15.1481 55.2232 15.1133 55.1362 15.0871 55.0489C15.0609 54.9355 15.0348 54.8397 15.0261 54.7263C15.0087 54.6303 15 54.5169 15 54.4124V46.924C15 45.625 16.0636 44.5789 17.3537 44.5789H60.9332C60.9941 44.5789 61.0552 44.5789 61.1162 44.5875L61.1249 44.5962C61.1685 44.5962 61.2208 44.5962 61.2644 44.6049C61.3167 44.6136 61.3777 44.6136 61.43 44.6224C61.6043 44.6573 61.7787 44.7183 61.9356 44.7967C61.9967 44.8316 62.0489 44.8491 62.11 44.8927C62.3106 45.006 62.5024 45.1456 62.6593 45.3287Z" fill="white"/>
<path d="M54.1229 53.0169C53.2727 53.0169 52.5771 52.3213 52.5771 51.4712C52.5771 50.621 53.2728 49.9255 54.1229 49.9255C54.973 49.9255 55.6686 50.6211 55.6686 51.4712C55.6686 52.3214 54.973 53.0169 54.1229 53.0169Z" fill="#C55288"/>
<path d="M57.8682 53.0169C57.018 53.0169 56.3225 52.3213 56.3225 51.4712C56.3225 50.621 57.0181 49.9255 57.8682 49.9255C58.7184 49.9255 59.4139 50.6211 59.4139 51.4712C59.414 52.3214 58.7184 53.0169 57.8682 53.0169Z" fill="#B2C757"/>
<path d="M47.1226 51.2981H17.3091V53.9133H47.1226V51.2981Z" fill="#446058"/>
<path opacity="0.08" d="M47.1228 53.4651H17.3093V54.1006H47.1228V53.4651Z" fill="#E3E2E2"/>
<path d="M47.1226 47.1042H17.3091V49.7195H47.1226V47.1042Z" fill="#446058"/>
<path opacity="0.08" d="M47.1228 49.4016H17.3093V50.0372H47.1228V49.4016Z" fill="#E3E2E2"/>
<path d="M39.1392 65.0001C40.6342 65.0001 41.846 63.7882 41.846 62.2933C41.846 60.7983 40.6342 59.5864 39.1392 59.5864C37.6443 59.5864 36.4324 60.7983 36.4324 62.2933C36.4324 63.7882 37.6443 65.0001 39.1392 65.0001Z" fill="white"/>
<path opacity="0.07" d="M43.7333 27.196H60.9332C62.2321 27.196 63.2869 26.1324 63.2869 24.8423V17.3624C63.2869 16.7435 63.0516 16.1942 62.668 15.767H62.6593L62.6506 15.7496C62.5982 15.6974 62.546 15.645 62.4937 15.6101C62.4501 15.5577 62.3978 15.5142 62.3455 15.4706C62.206 15.3746 62.0491 15.2787 61.8922 15.2091C61.8225 15.1829 61.744 15.1567 61.6655 15.1218C61.622 15.1044 61.5783 15.087 61.5261 15.0782C61.4912 15.0695 61.4476 15.0607 61.404 15.0521C61.3778 15.0435 61.343 15.0347 61.3168 15.0347C61.1947 15.0087 61.064 15 60.9332 15H39.1436V64.9994C40.0969 64.9979 40.9305 64.5015 41.4115 63.7557H48.7954V60.9486H41.4754C41.2483 60.5551 40.9301 60.2255 40.5428 59.9891V57.5203H40.5472V56.7662H60.9333C62.2322 56.7662 63.287 55.7114 63.287 54.4125V46.9241C63.287 46.8632 63.287 46.8021 63.2783 46.7497C63.2348 46.2006 63.0168 45.7036 62.6682 45.3288H62.6595C62.5025 45.1457 62.3107 45.0062 62.1103 44.8929C62.0492 44.8492 61.9969 44.8317 61.9359 44.7969C61.779 44.7185 61.6047 44.6575 61.4303 44.6226C61.3779 44.6139 61.3169 44.6139 61.2646 44.6051C61.2211 44.5964 61.1688 44.5876 61.1165 44.5876C61.0555 44.5789 60.9944 44.5789 60.9335 44.5789H40.5427V41.9811H58.5185H60.9333C62.2322 41.9811 63.287 40.9175 63.287 39.6187V32.1476C63.287 31.5286 63.0517 30.962 62.6507 30.5349C62.4327 30.2996 62.18 30.1164 61.8923 30.0031C61.8226 29.9683 61.7441 29.9247 61.6656 29.9072C61.6221 29.8897 61.5784 29.8724 61.5262 29.8637C61.4913 29.855 61.4477 29.855 61.4041 29.8375C61.3779 29.8288 61.3431 29.82 61.3169 29.82C61.1949 29.7938 61.0641 29.7938 60.9334 29.7938H46.3225H40.5427V27.196H43.7333Z" fill="#040000"/>
</svg>
