<svg width="80" height="80" viewBox="0 0 80 80" fill="none" xmlns="http://www.w3.org/2000/svg">
<rect x="1" y="1" width="78" height="78" rx="39" fill="white" stroke="#663399" stroke-width="2"/>
<g clip-path="url(#clip0_244_4129)">
<path d="M52.2374 30.8666V51.5943C52.2374 52.9889 51.2123 54.1401 49.8765 54.3417C49.7336 54.3752 49.5907 54.3837 49.4479 54.3837H36.719L27.4265 61.5673L27.6113 54.3837H17.7811C17.6298 54.3837 17.487 54.3753 17.3441 54.3417C16.1595 54.1653 15.2269 53.2243 15.042 52.0396C15.0084 51.8966 15 51.7455 15 51.5943V30.8666C15 29.3291 16.2435 28.0857 17.7811 28.0857H49.448C50.9855 28.0856 52.2374 29.3291 52.2374 30.8666Z" fill="#3D3D3D"/>
<path d="M65 21.2547V47.5444C65 49.0568 63.7732 50.2835 62.2609 50.2835H22.755C21.2427 50.2835 20.0243 49.0568 20.0243 47.5444V21.2547C20.0243 19.7424 21.2427 18.5156 22.755 18.5156H62.2609C62.4878 18.5156 62.7062 18.5408 62.9163 18.5997C63.8994 18.835 64.6807 19.6163 64.916 20.5993C64.9748 20.8094 65 21.0278 65 21.2547Z" fill="#5ABB8F"/>
<path d="M65 21.8848V46.9227C65 47.7124 64.7312 48.4435 64.269 49.0147C64.185 49.1239 64.0926 49.2248 63.9918 49.3256C63.9161 49.4012 63.8321 49.4685 63.7481 49.5356C63.6557 49.6196 63.5549 49.6869 63.4456 49.7541C63.3784 49.8045 63.2943 49.8465 63.2188 49.8886C63.4204 49.628 63.5801 49.334 63.6977 49.0147C63.832 48.6535 63.9077 48.2587 63.9077 47.8469V22.8091C63.9077 20.9522 62.3953 19.4483 60.5385 19.4483H22.2929C21.7216 19.4483 21.1922 19.5827 20.7217 19.8348C21.3351 19.0366 22.3013 18.5156 23.3852 18.5156H61.6393C62.2189 18.5156 62.765 18.6669 63.244 18.9273C63.8153 19.2383 64.2858 19.7088 64.5968 20.2802C64.8487 20.759 65 21.3052 65 21.8848Z" fill="#6EC098"/>
<path d="M35.0309 47.3965H49.6931L49.9923 58.9627L35.0309 47.3965Z" fill="#5ABB8F"/>
<path opacity="0.06" d="M64.2702 49.0142C63.6538 49.7891 62.7023 50.2858 61.6372 50.2858H49.7674L49.9919 58.9629L38.7685 50.2858H23.3862C22.3209 50.2858 21.3695 49.7892 20.7532 49.0142H38.2659L49.3934 57.6164L49.172 49.0142H64.2702Z" fill="#040000"/>
<path d="M55.3776 24.7524H29.0471V27.5949H55.3776V24.7524Z" fill="#93CEB2"/>
<path d="M58.0704 32.5811H29.0471V35.4235H58.0704V32.5811Z" fill="#93CEB2"/>
<path d="M44.8678 40.3606H29.0471V43.2031H44.8678V40.3606Z" fill="#93CEB2"/>
<path opacity="0.06" d="M35.6824 55.1851L36.7191 54.3837H44.0689L49.9919 58.9628V58.9625L49.9923 58.9628L49.8728 54.3421C49.8741 54.3418 49.8753 54.3421 49.8765 54.3418C51.2124 54.1401 52.2375 52.9889 52.2375 51.5943V50.2858H61.6371C61.6438 50.2858 61.6499 50.2836 61.6566 50.2836H62.2611C63.7734 50.2836 65.0002 49.0569 65.0002 47.5445V46.9227V25.8674L35.6824 55.1851Z" fill="#040000"/>
</g>
<defs>
<clipPath id="clip0_244_4129">
<rect width="50" height="50" fill="white" transform="translate(15 15)"/>
</clipPath>
</defs>
</svg>
