<svg width="80" height="80" viewBox="0 0 80 80" fill="none" xmlns="http://www.w3.org/2000/svg">
<rect x="1" y="1" width="78" height="78" rx="39" fill="white" stroke="#663399" stroke-width="2"/>
<path d="M44.8303 34.1041L45.5494 34.4403L47.3272 32.6624L44.8303 34.1041Z" fill="#EFF1AA"/>
<path d="M57.3071 22.686L52.1965 27.7968C49.0762 24.6766 44.7648 22.7476 40 22.7476C30.478 22.7476 22.7544 30.4634 22.7544 39.9932C22.7544 44.7503 24.6834 49.0617 27.8036 52.182L22.3855 57.6C22.3395 57.5538 22.2856 57.5079 22.2318 57.454C21.2559 56.4779 20.3797 55.4404 19.5958 54.3338C18.5353 52.866 17.6515 51.2828 16.9444 49.6074C15.6532 46.5563 15 43.3209 15 39.9932C15 36.6577 15.6532 33.4223 16.9443 30.3713C18.1894 27.4354 19.9646 24.7918 22.2317 22.5247C24.4988 20.2576 27.1426 18.4822 30.0783 17.2372C33.1294 15.9461 36.3648 15.293 39.7003 15.293C39.8002 15.293 39.9001 15.3005 40 15.3005C43.2201 15.3313 46.3557 15.9846 49.3145 17.2372C52.2579 18.4823 54.8939 20.2576 57.161 22.5247C57.2148 22.5785 57.2533 22.6322 57.3071 22.686Z" fill="#77C4A2"/>
<path d="M40 57.2354C35.2377 57.2354 30.9262 55.3052 27.8053 52.1842L22.3881 57.6016C24.6202 59.7961 27.2054 61.5277 30.0816 62.7441C33.1301 64.0336 36.3648 64.6878 39.697 64.6878C43.029 64.6878 46.2638 64.0336 49.3123 62.7441C52.2542 61.4999 54.8944 59.7202 57.161 57.4536C58.2714 56.3435 59.2647 55.1435 60.1351 53.8622L53.8662 50.2427C50.7245 54.4847 45.6841 57.2354 40 57.2354Z" fill="#77C4A2"/>
<path d="M65 22.4556L64.9308 23.2934L63.2477 42.7216L57.2455 39.9087C57.2225 35.1823 55.2935 30.9017 52.1963 27.797L57.3069 22.6862C58.183 23.5701 58.99 24.5154 59.7124 25.5144L64.4234 22.7862L65 22.4556Z" fill="#77C4A2"/>
<path d="M52.1935 27.7961L49.5774 30.4124C49.7732 30.6142 49.9647 30.8203 50.148 31.0339L47.3272 32.6625L44.8303 34.1042L45.5494 34.4404L57.2438 39.9093C57.2221 35.1792 55.296 30.8995 52.1935 27.7961Z" fill="#77C4A2"/>
<path d="M25.9273 39.9896C25.9273 32.3966 32.1045 26.2197 39.697 26.2197C43.5705 26.2197 47.0731 27.829 49.5775 30.4122L52.1936 27.796C49.0731 24.6748 44.7625 22.7437 40 22.7437C30.4754 22.7437 22.7542 30.465 22.7542 39.9896C22.7542 44.7519 24.6845 49.0633 27.8054 52.1841L30.1237 49.8658C27.5408 47.3614 25.9273 43.8628 25.9273 39.9896Z" fill="#48B685"/>
<path d="M40 57.2354C45.684 57.2354 50.7245 54.4846 53.8663 50.2427L50.6182 48.3672C48.0981 51.6441 44.1399 53.7593 39.697 53.7593C35.9778 53.7593 32.604 52.2707 30.1237 49.8659L27.8054 52.1842C30.9262 55.305 35.2376 57.2354 40 57.2354Z" fill="#70C2A2"/>
<path opacity="0.1" d="M40 15.3005V26.2365C39.9001 26.2365 39.8002 26.2213 39.7003 26.2213C32.1073 26.2213 25.9283 32.4001 25.9283 39.9932C25.9283 43.8665 27.5423 47.3634 30.1245 49.8686C32.6068 52.2741 35.9807 53.7573 39.7003 53.7573C39.8002 53.7573 39.9001 53.7498 40 53.7498V64.6779C39.9001 64.6779 39.8002 64.6858 39.7003 64.6858C36.3649 64.6858 33.1294 64.0325 30.0784 62.7413C28.3953 62.0343 26.8199 61.1429 25.352 60.0901C24.3067 59.3445 23.3154 58.5145 22.3854 57.6C22.3394 57.5538 22.2855 57.5079 22.2317 57.454C21.2558 56.4779 20.3796 55.4404 19.5957 54.3338C18.5352 52.866 17.6514 51.2828 16.9443 49.6074C15.6532 46.5563 15 43.3209 15 39.9932C15 36.6577 15.6532 33.4223 16.9443 30.3713C18.1894 27.4354 19.9646 24.7918 22.2317 22.5247C24.4988 20.2576 27.1426 18.4822 30.0783 17.2372C33.1294 15.9461 36.3648 15.293 39.7003 15.293C39.8002 15.293 39.9001 15.3005 40 15.3005Z" fill="white"/>
</svg>
