<svg width="41" height="37" viewBox="0 0 41 37" fill="none" xmlns="http://www.w3.org/2000/svg">
<path d="M26.896 32.072L24.4 29.576C26.464 26.264 26.368 22.184 26.368 17.912C26.368 12.776 26.512 7.97601 22.912 4.37601C20.416 1.88001 17.536 0.536011 13.36 0.536011C9.18399 0.536011 6.30399 1.88001 3.80799 4.37601C0.207987 7.97601 0.351986 12.776 0.351986 17.912C0.351986 23.048 0.207987 27.848 3.80799 31.448C6.30399 33.944 9.18399 35.288 13.36 35.288C16 35.288 18.16 34.76 19.984 33.704L22.624 36.344L26.896 32.072ZM17.968 17.912C17.968 20.216 17.872 21.8 17.776 22.952L16.144 21.32L11.872 25.592L14.032 27.752C13.792 27.8 13.6 27.8 13.36 27.8C11.824 27.8 10.624 27.08 9.99999 26.264C9.23199 25.256 8.75199 24.152 8.75199 17.912C8.75199 11.672 9.23199 10.52 9.99999 9.51201C10.624 8.69601 11.824 8.02401 13.36 8.02401C14.896 8.02401 16.096 8.69601 16.72 9.51201C17.488 10.52 17.968 11.672 17.968 17.912Z" fill="black"/>
<path d="M40.0791 35V26.36H31.4391V35H40.0791Z" fill="black"/>
</svg>
