<svg width="80" height="80" viewBox="0 0 80 80" fill="none" xmlns="http://www.w3.org/2000/svg">
<rect x="1" y="1" width="78" height="78" rx="39" fill="#D3A9FD" stroke="#D3A9FD" stroke-width="2"/>
<path d="M39.9701 49.5969C47.2046 49.5969 53.0693 43.7322 53.0693 36.4977C53.0693 29.2632 47.2046 23.3984 39.9701 23.3984C32.7356 23.3984 26.8708 29.2632 26.8708 36.4977C26.8708 43.7322 32.7356 49.5969 39.9701 49.5969Z" fill="white"/>
<path d="M40.1499 31.1243H32.8359C32.2424 31.1243 31.7568 30.6386 31.7568 30.0452C31.7568 29.4517 32.2425 28.9661 32.8359 28.9661H40.1499C40.7435 28.9661 41.229 29.4517 41.229 30.0452C41.229 30.6386 40.7434 31.1243 40.1499 31.1243Z" fill="#5ABB8F"/>
<path d="M38.891 35.7105H31.577C30.9836 35.7105 30.4979 35.2248 30.4979 34.6314C30.4979 34.0379 30.9836 33.5522 31.577 33.5522H38.891C39.4844 33.5522 39.9701 34.0379 39.9701 34.6314C39.9701 35.2248 39.4844 35.7105 38.891 35.7105Z" fill="#5ABB8F"/>
<path d="M49.3224 40.6565H31.577C30.9836 40.6565 30.4979 40.1709 30.4979 39.5774C30.4979 38.9838 30.9836 38.4983 31.577 38.4983H49.3224C49.9159 38.4983 50.4015 38.9839 50.4015 39.5774C50.4015 40.1709 49.9159 40.6565 49.3224 40.6565Z" fill="#5ABB8F"/>
<path d="M41.4538 44.1636H32.9708C32.3773 44.1636 31.8917 43.6779 31.8917 43.0845C31.8917 42.4909 32.3774 42.0054 32.9708 42.0054H41.4538C42.0474 42.0054 42.5329 42.491 42.5329 43.0845C42.5329 43.6779 42.0474 44.1636 41.4538 44.1636Z" fill="#5ABB8F"/>
<path d="M49.1426 35.7105H41.8286C41.2351 35.7105 40.7495 35.2248 40.7495 34.6314C40.7495 34.0379 41.2351 33.5522 41.8286 33.5522H49.1426C49.736 33.5522 50.2217 34.0379 50.2217 34.6314C50.2217 35.2248 49.736 35.7105 49.1426 35.7105Z" fill="#5ABB8F"/>
<path d="M35.4282 48.0685L42.5409 46.9895L42.7524 53.779L35.4282 48.0685Z" fill="white"/>
<path d="M33.2262 49.9952C31.8521 51.3692 30.1058 52.3728 28.1489 52.8386L23.4044 56.5381L23.5177 52.9141C18.6563 51.9178 15 47.6158 15 42.4612C15 36.5674 19.7786 31.7888 25.6724 31.7888H25.6777C25.2677 33.188 25.0482 34.6682 25.0482 36.2006C25.0483 42.1483 28.3522 47.3262 33.2262 49.9952Z" fill="#5ABB8F"/>
<path d="M46.7738 49.9952C48.1478 51.3692 49.8942 52.3728 51.851 52.8386L56.5956 56.5381L56.4823 52.9141C61.3436 51.9178 65 47.6158 65 42.4612C65 36.5674 60.2213 31.7888 54.3276 31.7888H54.3222C54.7323 33.188 54.9517 34.6682 54.9517 36.2006C54.9516 42.1483 51.6477 47.3262 46.7738 49.9952Z" fill="#D1E9D9"/>
<g opacity="0.04">
<path opacity="0.04" d="M53.0693 36.4977C53.0693 33.7751 52.2378 31.2474 50.8162 29.1523L32.639 47.3294C33.9205 48.1963 35.358 48.8503 36.908 49.2222L42.7524 53.7789L42.6138 49.3297C48.581 48.1067 53.0693 42.8265 53.0693 36.4977Z" fill="#070405"/>
<path opacity="0.04" d="M23.5211 56.4472L28.149 52.8386C30.1057 52.3728 31.8521 51.3693 33.2262 49.9952C32.5358 49.6171 31.8811 49.1835 31.2586 48.7097L23.5211 56.4472Z" fill="#070405"/>
<path opacity="0.04" d="M65 42.4613C65 36.5675 60.2213 31.7888 54.3275 31.7888H54.3221C54.7322 33.188 54.9516 34.6682 54.9516 36.2006C54.9516 42.1483 51.6477 47.3262 46.7738 49.9953C48.1478 51.3693 49.8942 52.3729 51.851 52.8387L56.5956 56.5383L56.4823 52.9143C61.3436 51.9179 65 47.6159 65 42.4613Z" fill="#55B087"/>
</g>
</svg>
