<svg width="80" height="80" viewBox="0 0 80 80" fill="none" xmlns="http://www.w3.org/2000/svg">
<rect x="1" y="1" width="78" height="78" rx="39" fill="#D3A9FD" stroke="#D3A9FD" stroke-width="2"/>
<path d="M65 20.9585V60.672H15.0233V25.7593H15V21.3008H15.0467C15.0156 21.192 15 21.0751 15 20.9585C15 20.0947 15.7003 19.3945 16.564 19.3945H63.436C64.2997 19.3945 65 20.0947 65 20.9585Z" fill="#44494F"/>
<path d="M64.0948 25.5154H15.9052V59.6357H64.0948V25.5154Z" fill="white"/>
<path opacity="0.06" d="M64.0948 25.5154H15.9052V27.543H64.0948V25.5154Z" fill="#0D0D0D"/>
<path d="M60.156 30.7197V36.7791H56.0886L52.0447 40.4989L45.4141 34.4008L41.6988 37.817H38.2295V30.7197H60.156Z" fill="#F7BFA1"/>
<path d="M60.156 36.7792V43.5341H38.2295V37.8171H41.6988L45.4141 34.4009L52.0447 40.499L56.0886 36.7792H60.156Z" fill="#F29B84"/>
<path d="M60.156 36.4222V37.2007H56.2847L52.053 41.0814L45.4029 34.9833L41.8521 38.2386H38.2295V37.4602H41.5L45.4029 33.8831L52.053 39.9811L55.9325 36.4222H60.156Z" fill="#F9F8C9"/>
<path d="M45.5105 35.477C45.9417 35.477 46.2913 35.1356 46.2913 34.7146C46.2913 34.2935 45.9417 33.9521 45.5105 33.9521C45.0793 33.9521 44.7297 34.2935 44.7297 34.7146C44.7297 35.1356 45.0793 35.477 45.5105 35.477Z" fill="#FEFDF0"/>
<path d="M56.0886 37.5414C56.5198 37.5414 56.8694 37.2001 56.8694 36.779C56.8694 36.3579 56.5198 36.0166 56.0886 36.0166C55.6574 36.0166 55.3079 36.3579 55.3079 36.779C55.3079 37.2001 55.6574 37.5414 56.0886 37.5414Z" fill="#FEFDF0"/>
<path d="M52.0363 41.2323C52.4675 41.2323 52.817 40.891 52.817 40.4699C52.817 40.0489 52.4675 39.7075 52.0363 39.7075C51.6051 39.7075 51.2555 40.0489 51.2555 40.4699C51.2555 40.891 51.6051 41.2323 52.0363 41.2323Z" fill="#FEFDF0"/>
<path d="M41.7815 38.3681C42.2127 38.3681 42.5623 38.0267 42.5623 37.6057C42.5623 37.1846 42.2127 36.8433 41.7815 36.8433C41.3503 36.8433 41.0007 37.1846 41.0007 37.6057C41.0007 38.0267 41.3503 38.3681 41.7815 38.3681Z" fill="#FEFDF0"/>
<path d="M27.2866 23.836C27.9414 23.836 28.4722 23.271 28.4722 22.574C28.4722 21.877 27.9414 21.312 27.2866 21.312C26.6318 21.312 26.101 21.877 26.101 22.574C26.101 23.271 26.6318 23.836 27.2866 23.836Z" fill="#8BC66F"/>
<path d="M22.9736 23.836C23.6284 23.836 24.1593 23.271 24.1593 22.574C24.1593 21.877 23.6284 21.312 22.9736 21.312C22.3188 21.312 21.788 21.877 21.788 22.574C21.788 23.271 22.3188 23.836 22.9736 23.836Z" fill="#F4DB6D"/>
<path d="M18.6606 23.836C19.3154 23.836 19.8463 23.271 19.8463 22.574C19.8463 21.877 19.3154 21.312 18.6606 21.312C18.0058 21.312 17.475 21.877 17.475 22.574C17.475 23.271 18.0058 23.836 18.6606 23.836Z" fill="#E06276"/>
<path opacity="0.5" d="M27.7303 49.2351H20.244V55.4857H27.7303V49.2351Z" fill="#899C99"/>
<g opacity="0.5">
<path opacity="0.5" d="M33.9223 54.1882H28.9196V55.0492H33.9223V54.1882Z" fill="#899C99"/>
<path opacity="0.5" d="M39.2531 49.489H28.9196V50.389H39.2531V49.489Z" fill="#899C99"/>
<path opacity="0.5" d="M39.2531 51.8289H28.9196V52.7289H39.2531V51.8289Z" fill="#899C99"/>
</g>
<path opacity="0.5" d="M49.0264 49.2351H41.54V55.4857H49.0264V49.2351Z" fill="#899C99"/>
<g opacity="0.5">
<path opacity="0.5" d="M55.2183 54.1882H50.2156V55.0492H55.2183V54.1882Z" fill="#899C99"/>
<path opacity="0.5" d="M60.5491 49.489H50.2156V50.389H60.5491V49.489Z" fill="#899C99"/>
<path opacity="0.5" d="M60.5491 51.8289H50.2156V52.7289H60.5491V51.8289Z" fill="#899C99"/>
</g>
<path d="M35.1363 36.099C34.8112 34.7092 34.1366 33.4242 33.1871 32.3657C32.2369 31.3066 31.011 30.4748 29.5781 29.9974C29.4303 29.9481 29.2806 29.9019 29.1285 29.8603C27.7823 29.4922 26.4238 29.4734 25.1468 29.7447C23.6363 30.0657 22.2407 30.7946 21.1171 31.8446L27.3512 38.1425L35.0562 40.2492C35.4404 38.844 35.4465 37.4245 35.1363 36.099Z" fill="#F29640"/>
<path d="M35.0561 40.2494C35.4404 38.844 35.4464 37.4246 35.1363 36.0991L27.3511 38.1428L33.0136 43.8632C33.9549 42.8798 34.6719 41.6548 35.0561 40.2494Z" fill="#E8EA76"/>
<path d="M24.6671 46.177C23.3346 45.8126 22.1655 45.1477 21.2106 44.2771C21.1998 44.2688 21.1905 44.2597 21.181 44.2506C20.0432 43.2056 19.2128 41.8679 18.7796 40.392C18.3539 38.9399 18.311 37.3552 18.7395 35.788C19.168 34.2208 20.0113 32.8786 21.1165 31.845L27.351 38.1426L25.124 46.2879C24.9717 46.2548 24.8193 46.2186 24.6671 46.177Z" fill="#6992A1"/>
<path d="M25.124 46.2879C26.6001 46.606 28.0792 46.5135 29.4357 46.0854C29.4477 46.0811 29.4607 46.0771 29.4727 46.0728C30.8145 45.6431 32.0351 44.8845 33.0137 43.8628L27.3807 38.1724L27.3741 38.1489L27.3654 38.1573L27.351 38.1426L27.34 38.1829L21.2106 44.2772C22.1655 45.1477 23.3346 45.8128 24.6671 46.1771C24.8193 46.2186 24.9717 46.2549 25.124 46.2879Z" fill="#7BCAD4"/>
<path d="M60.1559 44.4893H56.9423V46.4729H60.1559V44.4893Z" fill="#82CCD3"/>
<path d="M56.0307 44.4893H52.817V46.4729H56.0307V44.4893Z" fill="#E4E78E"/>
<path d="M51.9054 44.4893H48.6918V46.4729H51.9054V44.4893Z" fill="#E5A871"/>
<path d="M47.7802 44.4893H44.5665V46.4729H47.7802V44.4893Z" fill="#6992A1"/>
</svg>
