<svg width="80" height="80" viewBox="0 0 80 80" fill="none" xmlns="http://www.w3.org/2000/svg">
<rect x="1" y="1" width="78" height="78" rx="39" fill="#D3A9FD" stroke="#D3A9FD" stroke-width="2"/>
<path d="M65 47.802C65 52.3704 61.2991 56.0713 56.7307 56.0713H23.2771C21.7722 56.0713 20.3518 55.6644 19.1309 54.9579C16.6586 53.5298 15 50.8578 15 47.802C15 44.3314 17.1423 41.36 20.1752 40.1392C19.5225 38.9567 19.1463 37.5977 19.1463 36.1542C19.1463 31.5857 22.8548 27.8849 27.4232 27.8849C30.0338 27.8849 32.368 29.098 33.8806 30.9945C35.946 26.8944 40.1689 24.0611 45.0521 23.9844H45.2519C48.2924 23.9844 51.0871 25.0516 53.2754 26.833C53.9588 27.3858 54.5884 28.0077 55.1412 28.6988C56.9226 30.8871 57.9898 33.6742 57.9898 36.7147C57.9898 37.7052 57.8746 38.6649 57.6597 39.5863C61.7904 40.047 65 43.5481 65 47.802Z" fill="white"/>
<path d="M43.7126 44.1898C43.0768 44.1898 42.5565 43.6695 42.5565 43.0337V36.9237C42.5565 36.2878 42.0362 35.7676 41.4002 35.7676H38.6062C37.9703 35.7676 37.45 36.2879 37.45 36.9237V43.0337C37.45 43.6695 36.9297 44.1898 36.2938 44.1898H34.1421C33.5062 44.1898 33.3004 44.6044 33.6847 45.1109L39.3043 52.5181C39.6886 53.0247 40.3176 53.0247 40.7019 52.5181L46.3215 45.1109C46.7058 44.6043 46.5 44.1898 45.8641 44.1898H43.7126Z" fill="#E4AE9E"/>
</svg>
